<?xml version="1.0" standalone="no"?>
<!DOCTYPE svg PUBLIC "-//W3C//DTD SVG 20010904//EN"
 "http://www.w3.org/TR/2001/REC-SVG-20010904/DTD/svg10.dtd">
<svg version="1.0" xmlns="http://www.w3.org/2000/svg"
 width="28pt" height="28pt" viewBox="231.33 189.98 590.86 632.42"
 preserveAspectRatio="xMidYMid meet">

<g transform="translate(0,1024) scale(0.100000,-0.100000)"
fill="#dddddd" stroke="none">
<path d="M7030 8320 c-47 -10 -105 -26 -130 -36 -71 -28 -216 -114 -278 -164
-90 -72 -195 -210 -260 -340 -31 -63 -57 -116 -58 -118 -1 -2 -55 15 -120 38
-121 42 -385 109 -504 129 -231 37 -603 38 -845 2 -420 -63 -884 -233 -1190
-437 -243 -161 -544 -439 -733 -676 -227 -286 -433 -704 -521 -1058 -60 -242
-90 -612 -73 -891 36 -570 178 -990 497 -1474 307 -465 668 -767 1215 -1017
171 -78 328 -130 575 -191 236 -59 349 -71 640 -71 355 0 551 29 905 135 315
95 547 204 820 385 155 102 237 168 365 292 259 252 433 487 592 801 76 151
99 210 168 435 156 506 169 1139 34 1646 -75 278 -172 512 -304 729 -30 51
-55 95 -55 100 0 4 34 34 76 67 175 137 298 338 345 567 17 84 20 124 16 227
-9 203 -50 322 -175 508 -218 326 -624 493 -1002 412z m365 -326 c306 -73 527
-395 485 -707 -22 -158 -82 -277 -201 -399 -120 -124 -253 -178 -434 -178 -45
0 -107 5 -138 11 -66 12 -52 19 -290 -158 -120 -89 -143 -103 -177 -103 -30 0
-43 6 -59 26 -12 15 -21 37 -21 49 0 12 23 69 51 126 28 57 69 143 90 191 l39
88 -40 61 c-47 73 -73 140 -94 242 -30 144 -12 275 56 417 32 67 57 101 117
161 86 86 140 120 244 156 124 43 242 48 372 17z m-1585 -1024 c27 -28 28 -35
35 -162 3 -73 13 -248 21 -388 8 -140 14 -290 14 -332 0 -76 13 -108 42 -108
17 0 201 67 371 136 88 35 169 64 181 64 37 0 66 -28 66 -63 -1 -25 -28 -69
-125 -201 -69 -93 -125 -175 -125 -182 0 -23 28 -22 171 11 79 18 248 56 374
85 127 28 326 74 444 101 118 27 227 49 242 49 33 0 79 -50 79 -86 0 -16 -31
-60 -93 -132 -149 -171 -521 -614 -596 -709 -23 -29 -31 -47 -27 -61 7 -20
213 -172 387 -286 89 -57 99 -69 99 -112 0 -65 -15 -72 -265 -114 -288 -49
-284 -48 -291 -76 -8 -29 -7 -31 230 -314 157 -188 180 -219 179 -248 -1 -45
-37 -82 -77 -82 -35 0 -103 18 -330 84 -148 43 -161 45 -182 31 -13 -8 -26
-25 -28 -38 -3 -12 -7 -199 -10 -414 -4 -270 -10 -401 -18 -418 -13 -30 -55
-55 -90 -55 -29 0 -60 19 -228 140 -467 334 -519 370 -544 370 -15 0 -30 -8
-36 -21 -6 -11 -33 -129 -61 -262 -27 -133 -54 -252 -60 -263 -13 -25 -49 -44
-82 -44 -35 1 -62 30 -86 95 -119 314 -154 401 -163 412 -6 7 -21 13 -34 13
-31 0 -78 -63 -259 -351 -76 -121 -147 -225 -156 -230 -30 -16 -84 -10 -107
11 -26 25 -28 30 -41 205 -40 523 -45 555 -92 555 -9 0 -88 -74 -176 -164 -87
-89 -168 -169 -181 -175 -35 -19 -89 3 -109 43 -15 31 -13 40 61 286 42 139
75 259 72 267 -3 7 -18 13 -33 13 -34 0 -326 -62 -767 -164 -96 -22 -112 -24
-141 -12 -51 22 -51 45 4 243 160 581 224 836 215 850 -5 8 -124 59 -264 112
-140 54 -265 102 -276 109 -12 6 -27 25 -34 41 -17 43 -2 82 41 103 31 15 208
53 466 99 56 11 113 23 127 29 53 20 37 46 -172 297 -108 131 -212 256 -230
278 -40 50 -42 91 -6 134 35 42 58 40 234 -14 80 -25 201 -59 269 -77 l123
-32 107 27 c58 16 112 34 120 42 12 12 5 45 -47 232 -113 403 -202 740 -202
765 0 38 45 78 88 78 32 0 63 -29 459 -420 384 -380 428 -420 457 -420 24 0
36 6 44 23 6 12 20 137 32 277 12 140 24 266 26 278 8 38 49 72 87 72 47 0 67
-25 196 -245 140 -238 159 -256 213 -197 22 23 221 379 303 541 53 106 110
130 165 71z"/>
<path d="M7195 7601 c-157 -40 -236 -197 -171 -337 83 -179 338 -186 428 -11
76 151 -19 329 -187 350 -22 3 -53 2 -70 -2z"/>
<path d="M4341 5765 c-47 -7 -151 -35 -232 -61 l-148 -47 -31 -131 c-17 -72
-65 -277 -105 -456 -41 -179 -112 -491 -159 -695 -47 -203 -83 -371 -81 -373
2 -3 30 7 61 22 362 172 764 129 1082 -114 94 -72 122 -81 122 -38 0 13 16 91
36 173 19 83 50 218 69 300 41 183 99 436 159 695 96 416 104 455 99 463 -13
21 -166 127 -241 165 -110 57 -178 80 -292 97 -114 18 -225 18 -339 0z"/>
<path d="M5650 5510 c-58 -11 -125 -25 -150 -33 l-45 -13 -41 -179 c-23 -99
-83 -364 -134 -590 -50 -225 -118 -527 -151 -669 -32 -143 -57 -261 -55 -264
3 -2 29 3 60 12 31 9 99 23 153 31 312 47 577 -32 854 -255 68 -55 127 -100
131 -100 4 0 12 26 18 58 20 102 150 681 205 917 47 200 141 618 160 712 6 30
2 35 -72 94 -327 261 -591 340 -933 279z"/>
</g>
</svg>
